<svg width="19" height="24" viewBox="0 0 19 24" fill="none" xmlns="http://www.w3.org/2000/svg">
<path fill-rule="evenodd" clip-rule="evenodd" d="M9.00001 3.62984L7.92451 2.52434C6.22951 0.782838 3.06001 1.35884 1.90951 3.60434C1.38451 4.63184 1.23301 6.16484 2.26351 8.19734C3.24001 10.1293 5.28001 12.4798 9.00001 15.0628C12.7185 12.4783 14.7585 10.1278 15.7365 8.19734C16.767 6.16484 16.617 4.63184 16.0905 3.60584C14.94 1.35884 11.7705 0.782838 10.0755 2.52434L9.00001 3.62984ZM8.26501 16.3798C-7.90499 5.21984 3.76501 -3.35266 8.80351 1.28534C8.87101 1.34684 8.93701 1.41134 9.00151 1.47884C9.06601 1.41134 9.13201 1.34684 9.19951 1.28534C14.2395 -3.35266 25.905 5.22134 9.73501 16.3798L10.0875 17.0818C10.1096 17.126 10.1227 17.174 10.1262 17.2232C10.1297 17.2724 10.1235 17.3218 10.1079 17.3686C10.0923 17.4154 10.0676 17.4587 10.0353 17.496C10.003 17.5332 9.96363 17.5638 9.91951 17.5858C9.87538 17.6079 9.82735 17.6211 9.77814 17.6246C9.72893 17.628 9.67952 17.6218 9.63272 17.6062C9.58591 17.5906 9.54264 17.566 9.50537 17.5336C9.46811 17.5013 9.43757 17.462 9.41551 17.4178L9.40351 17.3923C9.41551 17.5573 9.43351 17.6953 9.45901 17.8273C9.54001 18.2323 9.70051 18.5593 10.0875 19.3318C10.5195 20.1988 10.44 21.0568 10.2015 21.7753C9.96601 22.4788 9.56851 23.0758 9.31951 23.4478L9.31351 23.4583C9.28613 23.4993 9.25094 23.5345 9.20997 23.5619C9.16899 23.5892 9.12303 23.6083 9.07469 23.6179C9.02636 23.6275 8.97661 23.6275 8.92828 23.6179C8.87994 23.6083 8.83398 23.5892 8.79301 23.5618C8.75204 23.5345 8.71686 23.4993 8.68948 23.4583C8.66211 23.4173 8.64307 23.3714 8.63346 23.323C8.62385 23.2747 8.62385 23.2249 8.63347 23.1766C8.64309 23.1283 8.66213 23.0823 8.68951 23.0413C8.94151 22.6633 9.28951 22.1413 9.48901 21.5368C9.68851 20.9428 9.73351 20.3008 9.41551 19.6678L9.39601 19.6258C9.03601 18.9058 8.82601 18.4888 8.72401 17.9728C8.68198 17.75 8.65591 17.5244 8.64601 17.2978L8.58601 17.4178C8.56418 17.4623 8.53377 17.5019 8.49655 17.5345C8.45932 17.5671 8.416 17.592 8.3691 17.6078C8.3222 17.6236 8.27263 17.63 8.22326 17.6265C8.17389 17.6231 8.1257 17.6099 8.08145 17.5877C8.03721 17.5655 7.99779 17.5348 7.96547 17.4973C7.93315 17.4599 7.90857 17.4163 7.89314 17.3693C7.87771 17.3223 7.87175 17.2727 7.87559 17.2233C7.87943 17.174 7.89299 17.1259 7.91551 17.0818L8.26801 16.3798H8.26501ZM6.01951 3.08984C5.04601 2.81984 3.79501 3.21434 3.24451 4.28684C3.04801 4.67384 2.87701 5.32034 3.12451 6.28934C3.21901 6.65534 3.74551 6.58634 3.85501 6.22484C4.17001 5.17934 4.79551 4.05434 5.89351 3.68684C6.21901 3.57734 6.34951 3.18134 6.01951 3.08984Z" fill="#EDA3B5"/>
</svg>
